HIERARCHY
ROOT mixamorig:Hips
{
	OFFSET -0.000008 104.274872 1.554316
	CHANNELS 6 Xposition Yposition Zposition Xrotation Yrotation Zrotation
	JOINT mixamorig:Spine
	{
		OFFSET -0.000005 10.181595 0.131519
		CHANNELS 6 Xposition Yposition Zposition Xrotation Yrotation Zrotation
		JOINT mixamorig:Spine1
		{
			OFFSET -0.000000 9.893959 -1.470707
			CHANNELS 6 Xposition Yposition Zposition Xrotation Yrotation Zrotation
			JOINT mixamorig:Spine2
			{
				OFFSET -0.000000 9.220757 -1.370641
				CHANNELS 6 Xposition Yposition Zposition Xrotation Yrotation Zrotation
				JOINT mixamorig:Neck
				{
					OFFSET 0.000001 16.740417 -2.049036
					CHANNELS 6 Xposition Yposition Zposition Xrotation Yrotation Zrotation
					JOINT mixamorig:Head
					{
						OFFSET 0.000000 9.617874 1.685006
						CHANNELS 6 Xposition Yposition Zposition Xrotation Yrotation Zrotation
						JOINT mixamorig:HeadTop_End
						{
							OFFSET 0.000002 22.037354 7.501101
							CHANNELS 6 Xposition Yposition Zposition Xrotation Yrotation Zrotation
							End Site
							{
								OFFSET 0.000168 2310.654297 -282.823242
							}
						}
					}
				}
				JOINT mixamorig:RightShoulder
				{
					OFFSET -4.569970 11.014908 -2.160885
					CHANNELS 6 Xposition Yposition Zposition Xrotation Yrotation Zrotation
					JOINT mixamorig:RightArm
					{
						OFFSET -10.592851 -0.524811 -2.232101
						CHANNELS 6 Xposition Yposition Zposition Xrotation Yrotation Zrotation
						JOINT mixamorig:RightForeArm
						{
							OFFSET -27.841511 0.000031 -0.000004
							CHANNELS 6 Xposition Yposition Zposition Xrotation Yrotation Zrotation
							JOINT mixamorig:RightHand
							{
								OFFSET -28.328831 -0.000015 0.000015
								CHANNELS 6 Xposition Yposition Zposition Xrotation Yrotation Zrotation
								JOINT mixamorig:RightHandThumb1
								{
									OFFSET -2.464806 -1.573990 2.681852
									CHANNELS 6 Xposition Yposition Zposition Xrotation Yrotation Zrotation
									JOINT mixamorig:RightHandThumb2
									{
										OFFSET -3.215179 -1.872803 1.924282
										CHANNELS 6 Xposition Yposition Zposition Xrotation Yrotation Zrotation
										JOINT mixamorig:RightHandThumb3
										{
											OFFSET -2.654831 -1.527969 1.512609
											CHANNELS 6 Xposition Yposition Zposition Xrotation Yrotation Zrotation
											JOINT mixamorig:RightHandThumb4
											{
												OFFSET -2.018814 -1.152008 1.108052
												CHANNELS 6 Xposition Yposition Zposition Xrotation Yrotation Zrotation
												End Site
												{
													OFFSET -188.809540 -114.533607 132.431396
												}
											}
										}
									}
								}
								JOINT mixamorig:RightHandIndex1
								{
									OFFSET -9.108284 -0.517868 2.259835
									CHANNELS 6 Xposition Yposition Zposition Xrotation Yrotation Zrotation
									JOINT mixamorig:RightHandIndex2
									{
										OFFSET -3.699989 0.000000 0.001215
										CHANNELS 6 Xposition Yposition Zposition Xrotation Yrotation Zrotation
										JOINT mixamorig:RightHandIndex3
										{
											OFFSET -2.850006 0.000031 -0.000522
											CHANNELS 6 Xposition Yposition Zposition Xrotation Yrotation Zrotation
											JOINT mixamorig:RightHandIndex4
											{
												OFFSET -2.772186 -0.000015 -0.000020
												CHANNELS 6 Xposition Yposition Zposition Xrotation Yrotation Zrotation
												End Site
												{
													OFFSET -277.218445 0.000000 -0.050231
												}
											}
										}
									}
								}
								JOINT mixamorig:RightHandMiddle1
								{
									OFFSET -9.532516 -0.000031 -0.000023
									CHANNELS 6 Xposition Yposition Zposition Xrotation Yrotation Zrotation
									JOINT mixamorig:RightHandMiddle2
									{
										OFFSET -3.700005 -0.000015 0.003713
										CHANNELS 6 Xposition Yposition Zposition Xrotation Yrotation Zrotation
										JOINT mixamorig:RightHandMiddle3
										{
											OFFSET -2.949974 0.000015 -0.002054
											CHANNELS 6 Xposition Yposition Zposition Xrotation Yrotation Zrotation
											JOINT mixamorig:RightHandMiddle4
											{
												OFFSET -2.946640 0.000000 -0.000156
												CHANNELS 6 Xposition Yposition Zposition Xrotation Yrotation Zrotation
												End Site
												{
													OFFSET -294.664337 0.000000 -0.113670
												}
											}
										}
									}
								}
								JOINT mixamorig:RightHandRing1
								{
									OFFSET -9.103600 -0.043076 -1.865134
									CHANNELS 6 Xposition Yposition Zposition Xrotation Yrotation Zrotation
									JOINT mixamorig:RightHandRing2
									{
										OFFSET -3.379288 0.000000 -0.001055
										CHANNELS 6 Xposition Yposition Zposition Xrotation Yrotation Zrotation
										JOINT mixamorig:RightHandRing3
										{
											OFFSET -2.889687 -0.000015 0.000379
											CHANNELS 6 Xposition Yposition Zposition Xrotation Yrotation Zrotation
											JOINT mixamorig:RightHandRing4
											{
												OFFSET -2.638809 -0.000015 0.000941
												CHANNELS 6 Xposition Yposition Zposition Xrotation Yrotation Zrotation
												End Site
												{
													OFFSET -263.880371 0.000000 0.516020
												}
											}
										}
									}
								}
								JOINT mixamorig:RightHandPinky1
								{
									OFFSET -8.076683 -0.486710 -3.806280
									CHANNELS 6 Xposition Yposition Zposition Xrotation Yrotation Zrotation
									JOINT mixamorig:RightHandPinky2
									{
										OFFSET -3.600014 -0.000015 -0.003747
										CHANNELS 6 Xposition Yposition Zposition Xrotation Yrotation Zrotation
										JOINT mixamorig:RightHandPinky3
										{
											OFFSET -2.099983 0.000000 -0.005739
											CHANNELS 6 Xposition Yposition Zposition Xrotation Yrotation Zrotation
											JOINT mixamorig:RightHandPinky4
											{
												OFFSET -2.115768 -0.000031 -0.003680
												CHANNELS 6 Xposition Yposition Zposition Xrotation Yrotation Zrotation
												End Site
												{
													OFFSET -211.577087 0.000000 -0.350686
												}
											}
										}
									}
								}
							}
						}
					}
				}
				JOINT mixamorig:LeftShoulder
				{
					OFFSET 4.570447 11.014725 -2.160855
					CHANNELS 6 Xposition Yposition Zposition Xrotation Yrotation Zrotation
					JOINT mixamorig:LeftArm
					{
						OFFSET 10.592371 -0.524597 -2.232119
						CHANNELS 6 Xposition Yposition Zposition Xrotation Yrotation Zrotation
						JOINT mixamorig:LeftForeArm
						{
							OFFSET 27.841532 -0.000031 0.000026
							CHANNELS 6 Xposition Yposition Zposition Xrotation Yrotation Zrotation
							JOINT mixamorig:LeftHand
							{
								OFFSET 28.328846 -0.000061 0.000022
								CHANNELS 6 Xposition Yposition Zposition Xrotation Yrotation Zrotation
								JOINT mixamorig:LeftHandThumb1
								{
									OFFSET 2.466141 -1.576172 2.681732
									CHANNELS 6 Xposition Yposition Zposition Xrotation Yrotation Zrotation
									JOINT mixamorig:LeftHandThumb2
									{
										OFFSET 3.217812 -1.872070 1.916482
										CHANNELS 6 Xposition Yposition Zposition Xrotation Yrotation Zrotation
										JOINT mixamorig:LeftHandThumb3
										{
											OFFSET 2.656029 -1.528778 1.514513
											CHANNELS 6 Xposition Yposition Zposition Xrotation Yrotation Zrotation
											JOINT mixamorig:LeftHandThumb4
											{
												OFFSET 2.020889 -1.154053 1.115139
												CHANNELS 6 Xposition Yposition Zposition Xrotation Yrotation Zrotation
												End Site
												{
													OFFSET 190.885437 -115.081749 130.048782
												}
											}
										}
									}
								}
								JOINT mixamorig:LeftHandIndex1
								{
									OFFSET 9.109314 -0.518021 2.259871
									CHANNELS 6 Xposition Yposition Zposition Xrotation Yrotation Zrotation
									JOINT mixamorig:LeftHandIndex2
									{
										OFFSET 3.699989 0.000000 -0.000322
										CHANNELS 6 Xposition Yposition Zposition Xrotation Yrotation Zrotation
										JOINT mixamorig:LeftHandIndex3
										{
											OFFSET 2.850006 0.000000 0.000352
											CHANNELS 6 Xposition Yposition Zposition Xrotation Yrotation Zrotation
											JOINT mixamorig:LeftHandIndex4
											{
												OFFSET 2.774864 -0.000031 -0.000027
												CHANNELS 6 Xposition Yposition Zposition Xrotation Yrotation Zrotation
												End Site
												{
													OFFSET 277.486267 0.000000 -0.009857
												}
											}
										}
									}
								}
								JOINT mixamorig:LeftHandMiddle1
								{
									OFFSET 9.533394 0.000061 0.000044
									CHANNELS 6 Xposition Yposition Zposition Xrotation Yrotation Zrotation
									JOINT mixamorig:LeftHandMiddle2
									{
										OFFSET 3.699989 -0.000015 -0.000231
										CHANNELS 6 Xposition Yposition Zposition Xrotation Yrotation Zrotation
										JOINT mixamorig:LeftHandMiddle3
										{
											OFFSET 2.949997 -0.000015 -0.000059
											CHANNELS 6 Xposition Yposition Zposition Xrotation Yrotation Zrotation
											JOINT mixamorig:LeftHandMiddle4
											{
												OFFSET 2.952896 0.000031 0.000063
												CHANNELS 6 Xposition Yposition Zposition Xrotation Yrotation Zrotation
												End Site
												{
													OFFSET 295.289337 0.000000 0.022810
												}
											}
										}
									}
								}
								JOINT mixamorig:LeftHandRing1
								{
									OFFSET 9.104523 -0.042999 -1.865074
									CHANNELS 6 Xposition Yposition Zposition Xrotation Yrotation Zrotation
									JOINT mixamorig:LeftHandRing2
									{
										OFFSET 3.150009 -0.000031 0.000043
										CHANNELS 6 Xposition Yposition Zposition Xrotation Yrotation Zrotation
										JOINT mixamorig:LeftHandRing3
										{
											OFFSET 2.949982 -0.000015 0.000040
											CHANNELS 6 Xposition Yposition Zposition Xrotation Yrotation Zrotation
											JOINT mixamorig:LeftHandRing4
											{
												OFFSET 2.644348 0.000000 0.000057
												CHANNELS 6 Xposition Yposition Zposition Xrotation Yrotation Zrotation
												End Site
												{
													OFFSET 264.434631 0.000000 0.012105
												}
											}
										}
									}
								}
								JOINT mixamorig:LeftHandPinky1
								{
									OFFSET 8.077789 -0.486847 -3.806259
									CHANNELS 6 Xposition Yposition Zposition Xrotation Yrotation Zrotation
									JOINT mixamorig:LeftHandPinky2
									{
										OFFSET 3.599953 0.000031 0.014727
										CHANNELS 6 Xposition Yposition Zposition Xrotation Yrotation Zrotation
										JOINT mixamorig:LeftHandPinky3
										{
											OFFSET 2.100021 0.000015 0.007705
											CHANNELS 6 Xposition Yposition Zposition Xrotation Yrotation Zrotation
											JOINT mixamorig:LeftHandPinky4
											{
												OFFSET 2.125504 0.000031 0.007517
												CHANNELS 6 Xposition Yposition Zposition Xrotation Yrotation Zrotation
												End Site
												{
													OFFSET 212.550781 0.000000 0.625752
												}
											}
										}
									}
								}
							}
						}
					}
				}
			}
		}
	}
	JOINT mixamorig:RightUpLeg
	{
		OFFSET -8.207787 -6.751648 -1.599560
		CHANNELS 6 Xposition Yposition Zposition Xrotation Yrotation Zrotation
		JOINT mixamorig:RightLeg
		{
			OFFSET -0.000002 -44.370117 0.345942
			CHANNELS 6 Xposition Yposition Zposition Xrotation Yrotation Zrotation
			JOINT mixamorig:RightFoot
			{
				OFFSET 0.000003 -44.423679 -3.043532
				CHANNELS 6 Xposition Yposition Zposition Xrotation Yrotation Zrotation
				JOINT mixamorig:RightToeBase
				{
					OFFSET -0.000002 -8.728671 10.710558
					CHANNELS 6 Xposition Yposition Zposition Xrotation Yrotation Zrotation
					JOINT mixamorig:RightToe_End
					{
						OFFSET -0.000001 -0.000679 9.278119
						CHANNELS 6 Xposition Yposition Zposition Xrotation Yrotation Zrotation
						End Site
						{
							OFFSET 0.000000 -0.067690 927.812134
						}
					}
				}
			}
		}
	}
	JOINT mixamorig:LeftUpLeg
	{
		OFFSET 8.207793 -6.751686 -1.599556
		CHANNELS 6 Xposition Yposition Zposition Xrotation Yrotation Zrotation
		JOINT mixamorig:LeftLeg
		{
			OFFSET -0.000004 -44.370014 0.346954
			CHANNELS 6 Xposition Yposition Zposition Xrotation Yrotation Zrotation
			JOINT mixamorig:LeftFoot
			{
				OFFSET -0.000001 -44.423672 -3.044401
				CHANNELS 6 Xposition Yposition Zposition Xrotation Yrotation Zrotation
				JOINT mixamorig:LeftToeBase
				{
					OFFSET -0.000002 -8.728669 10.710558
					CHANNELS 6 Xposition Yposition Zposition Xrotation Yrotation Zrotation
					JOINT mixamorig:LeftToe_End
					{
						OFFSET -0.000003 -0.000679 9.278133
						CHANNELS 6 Xposition Yposition Zposition Xrotation Yrotation Zrotation
						End Site
						{
							OFFSET 0.000000 -0.068021 927.813477
						}
					}
				}
			}
		}
	}
}
MOTION
Frames: 3
Frame Time: 0.033333
0.000006 104.270477 1.554256 0.000010 0.000003 -0.000113 -0.000005 10.181587 0.131522 0.000001 -0.000003 0.000084 -0.000000 9.893967 -1.470711 0.000001 0.000000 -0.000000 -0.000000 9.220802 -1.370642 0.000000 -0.000000 -0.000000 0.000001 16.740433 -2.049030 0.000000 -0.000000 -0.000000 0.000000 9.617859 1.685014 0.000000 0.000000 0.000000 0.000002 22.037384 7.501101 0.000000 -0.000000 0.000000 -4.569968 11.014880 -2.160881 0.000008 0.000001 -0.000038 -10.592875 -0.524695 -2.232001 74.315853 11.453360 -8.692648 -27.841522 0.000030 0.000536 -56.392286 120.650715 86.509660 -28.328810 0.000022 0.000021 -0.000320 -0.000043 0.000009 -2.464421 -1.573797 2.682346 -43.957260 -163.302897 0.141332 -3.215243 -1.872555 1.924618 151.354970 34.015633 23.836957 -2.654972 -1.527906 1.513080 152.062223 26.241302 -34.697829 -2.018823 -1.152007 1.108066 -0.000005 -0.000004 0.000004 -9.108389 -0.517548 2.260114 99.959853 15.800108 -18.822070 -3.700067 0.000312 0.001532 97.244566 14.587664 -16.506744 -2.850101 0.000360 -0.000251 97.661036 11.317797 -12.928162 -2.772186 -0.000018 -0.000024 -0.000004 -0.000002 -0.000000 -9.532597 0.000271 0.000257 100.142922 14.490931 -17.441173 -3.700066 0.000340 0.004004 99.296109 12.961551 -15.118535 -2.950085 0.000341 -0.001763 100.684003 11.436648 -13.766782 -2.946610 0.000001 -0.000153 -0.000001 -0.000000 0.000000 -9.103700 -0.042750 -1.864830 101.141790 16.104350 -19.470767 -3.379334 0.000319 -0.000777 101.837615 11.471693 -14.122941 -2.889757 0.000358 0.000689 104.776174 7.917731 -10.325743 -2.638823 -0.000026 0.000945 0.000001 0.000001 -0.000001 -8.076752 -0.486384 -3.805977 96.756398 17.137619 -19.080953 -3.600048 0.000278 -0.003464 99.750214 9.546972 -10.890083 -2.100004 0.000321 -0.005446 99.687178 5.304579 -6.026263 -2.115761 -0.000053 -0.003681 0.000001 -0.000001 -0.000006 4.570446 11.014691 -2.160851 -0.000018 0.000010 -0.000021 10.592374 -0.524501 -2.232314 70.429147 -1.761217 1.243204 27.841841 0.000146 -0.000230 103.579272 -59.538834 72.005056 28.328835 -0.000015 0.000019 0.000023 -0.000089 0.000002 2.465857 -1.576038 2.681879 -54.632419 177.598606 33.828646 3.217833 -1.871793 1.916366 154.361579 -27.247482 22.822932 2.656079 -1.528651 1.514468 137.714331 -28.383879 47.955055 2.020888 -1.154064 1.115149 -0.000002 0.000006 0.000001 9.109377 -0.517864 2.259716 83.213964 -14.858554 13.199981 3.700037 0.000151 -0.000454 81.705919 -16.360390 14.187776 2.850054 0.000166 0.000224 80.421079 -13.264781 11.226958 2.774880 -0.000015 -0.000030 -0.000002 -0.000003 0.000003 9.533460 0.000219 -0.000082 85.384687 -13.792305 12.724894 3.700067 0.000174 -0.000374 86.307384 -14.308723 13.420894 2.950042 0.000165 -0.000196 84.939898 -16.810385 15.408335 2.952846 -0.000037 0.000061 0.000002 0.000002 -0.000001 9.104576 -0.042848 -1.865235 85.049898 -13.285335 12.194822 3.150039 0.000192 -0.000074 89.644361 -13.247818 13.168394 2.950030 0.000185 -0.000078 90.447523 -14.048652 14.159524 2.644309 0.000015 0.000062 -0.000001 0.000003 0.000000 8.077828 -0.486718 -3.806431 76.664461 -15.280118 12.571640 3.599991 0.000173 0.014569 77.666976 -11.566554 9.726788 2.100019 0.000187 0.007533 80.453133 -10.201799 9.036426 2.125491 0.000002 0.007515 -0.000001 0.000001 -0.000001 -8.207786 -6.751667 -1.599560 -0.077001 -0.000003 0.000080 -0.000002 -44.370110 0.345938 0.153719 -0.000000 -0.000000 0.000000 -44.423679 -3.043532 -0.076700 0.000000 -0.000002 -0.000006 -8.728667 10.710559 -0.000009 -0.000000 -0.000000 -0.000001 -0.000679 9.278123 0.000000 -0.000000 -0.000000 8.207792 -6.751710 -1.599556 -0.074518 -0.000003 0.000081 -0.000002 -44.370014 0.346960 0.148822 0.000002 0.000000 -0.000001 -44.423664 -3.044403 -0.074314 0.000000 -0.000002 -0.000004 -8.728671 10.710558 0.000007 -0.000000 -0.000000 0.000000 -0.000680 9.278137 -0.000000 0.000000 -0.000001 
0.000006 104.270477 1.554256 0.000010 0.000003 -0.000113 -0.000005 10.181587 0.131522 0.000001 -0.000003 0.000084 -0.000000 9.893967 -1.470711 0.000001 0.000000 -0.000000 -0.000000 9.220802 -1.370642 0.000000 -0.000000 -0.000000 0.000001 16.740433 -2.049030 0.000000 -0.000000 -0.000000 0.000000 9.617859 1.685014 0.000000 0.000000 0.000000 0.000002 22.037384 7.501101 0.000000 -0.000000 0.000000 -4.569968 11.014880 -2.160881 0.000008 0.000001 -0.000038 -10.592874 -0.524679 -2.232014 73.166632 9.822877 -7.298713 -27.841534 -0.000005 0.000523 -55.475107 119.785139 84.407498 -28.328814 0.000020 0.000024 -0.000316 -0.000044 0.000007 -2.464419 -1.573732 2.682308 -51.030819 -166.504808 -18.407081 -3.215249 -1.872522 1.924626 150.357804 33.216156 20.038759 -2.654962 -1.527878 1.513065 149.091746 27.078370 -32.013045 -2.018827 -1.152003 1.108074 -0.000004 -0.000000 0.000002 -9.108394 -0.517556 2.260123 100.684372 15.876862 -19.152993 -3.700076 0.000314 0.001504 98.603944 14.565080 -16.875094 -2.850111 0.000365 -0.000245 98.894418 11.391510 -13.295828 -2.772196 -0.000002 -0.000022 -0.000003 0.000002 0.000001 -9.532596 0.000273 0.000270 100.157149 16.030312 -19.273780 -3.700080 0.000330 0.004013 102.022426 13.696436 -16.759735 -2.950063 0.000336 -0.001760 104.997199 11.825513 -15.363310 -2.946617 0.000006 -0.000153 0.000000 0.000001 0.000000 -9.103709 -0.042758 -1.864831 99.516396 17.722546 -20.822607 -3.379346 0.000317 -0.000777 101.040061 10.709195 -13.003997 -2.889755 0.000347 0.000681 106.551894 7.124816 -9.601814 -2.638819 -0.000012 0.000940 0.000002 -0.000000 0.000001 -8.076764 -0.486390 -3.805971 95.813648 19.264402 -21.111589 -3.600019 0.000306 -0.003471 97.656522 8.835556 -9.689123 -2.100015 0.000347 -0.005471 99.769236 3.868422 -4.336985 -2.115765 -0.000056 -0.003674 0.000000 0.000002 -0.000002 4.570446 11.014691 -2.160851 -0.000018 0.000010 -0.000021 10.592360 -0.524537 -2.232275 70.789044 11.765023 -8.373771 27.841845 0.000117 -0.000209 104.811459 -62.665544 76.666831 28.328836 -0.000028 0.000016 0.000019 -0.000090 -0.000002 2.466033 -1.576168 2.681906 -33.480317 161.787893 -24.293229 3.217865 -1.871846 1.916409 157.597271 -23.220492 41.541156 2.656113 -1.528689 1.514486 132.294822 -30.089285 55.694155 2.020899 -1.154069 1.115141 0.000000 0.000001 0.000002 9.109376 -0.517860 2.259719 85.841722 -16.601138 15.440951 3.700024 0.000162 -0.000466 82.987857 -11.760641 10.425461 2.850033 0.000184 0.000185 81.095403 -8.847286 7.572006 2.774879 -0.000019 -0.000021 0.000001 -0.000002 0.000000 9.533442 0.000205 -0.000104 86.942011 -15.932880 15.105853 3.700042 0.000185 -0.000395 87.630706 -10.762645 10.326424 2.950055 0.000170 -0.000202 87.090745 -9.719589 9.243030 2.952852 -0.000029 0.000073 -0.000000 0.000001 0.000002 9.104579 -0.042851 -1.865243 86.958697 -15.785172 14.980118 3.150058 0.000197 -0.000101 91.137509 -13.311808 13.578156 2.950018 0.000193 -0.000091 91.246382 -10.861694 11.100880 2.644328 0.000019 0.000055 0.000001 -0.000001 -0.000001 8.077844 -0.486722 -3.806396 80.473589 -19.206772 16.808689 3.600010 0.000173 0.014575 79.109642 -17.855293 15.229981 2.100037 0.000175 0.007541 78.865988 -12.327094 10.550459 2.125503 -0.000032 0.007519 0.000003 0.000002 0.000000 -8.207786 -6.751667 -1.599560 -0.077001 -0.000003 0.000080 -0.000002 -44.370110 0.345938 0.153719 -0.000000 -0.000000 0.000000 -44.423679 -3.043532 -0.076700 0.000000 -0.000002 -0.000006 -8.728667 10.710559 -0.000009 -0.000000 -0.000000 -0.000001 -0.000679 9.278123 0.000000 -0.000000 -0.000000 8.207792 -6.751710 -1.599556 -0.074518 -0.000003 0.000081 -0.000002 -44.370014 0.346960 0.148822 0.000002 0.000000 -0.000001 -44.423664 -3.044403 -0.074314 0.000000 -0.000002 -0.000004 -8.728671 10.710558 0.000007 -0.000000 -0.000000 0.000000 -0.000680 9.278137 -0.000000 0.000000 -0.000001 
0.000006 104.270477 1.554256 0.000010 0.000003 -0.000113 -0.000005 10.181587 0.131522 0.000001 -0.000003 0.000084 -0.000000 9.893967 -1.470711 0.000001 0.000000 -0.000000 -0.000000 9.220802 -1.370642 0.000000 -0.000000 -0.000000 0.000001 16.740433 -2.049030 0.000000 -0.000000 -0.000000 0.000000 9.617859 1.685014 0.000000 0.000000 0.000000 0.000002 22.037384 7.501101 0.000000 -0.000000 0.000000 -4.569968 11.014880 -2.160881 0.000008 0.000001 -0.000038 -10.592884 -0.524715 -2.231980 72.326731 16.364389 -11.998814 -27.841526 0.000007 0.000539 -52.613876 113.143675 73.663986 -28.328823 0.000021 0.000026 -0.000321 -0.000046 0.000008 -2.464417 -1.573759 2.682300 -49.668125 -164.883007 -14.602007 -3.215255 -1.872530 1.924634 150.436487 33.142052 19.349031 -2.654974 -1.527871 1.513061 148.699160 27.239886 -31.084307 -2.018827 -1.151996 1.108055 -0.000001 -0.000006 0.000002 -9.108381 -0.517552 2.260127 100.553908 15.618874 -18.801451 -3.700087 0.000321 0.001519 98.821158 14.027166 -16.314846 -2.850071 0.000361 -0.000255 99.420117 10.928736 -12.874976 -2.772131 -0.000003 -0.000021 -0.000001 0.000000 -0.000001 -9.532581 0.000266 0.000274 100.019719 15.289884 -18.350751 -3.700065 0.000330 0.004017 102.058579 13.078916 -16.013184 -2.950084 0.000342 -0.001750 105.203143 11.597853 -15.124354 -2.946610 0.000001 -0.000151 -0.000001 0.000000 0.000000 -9.103708 -0.042764 -1.864847 99.653676 17.124116 -20.170086 -3.379330 0.000313 -0.000771 101.335111 10.449038 -12.755619 -2.889748 0.000341 0.000691 106.581933 7.165448 -9.661409 -2.638794 -0.000019 0.000941 -0.000000 -0.000000 0.000000 -8.076756 -0.486404 -3.805984 96.060436 18.572768 -20.437948 -3.600039 0.000292 -0.003486 97.408517 8.677314 -9.468096 -2.100010 0.000322 -0.005462 99.380967 4.071807 -4.546182 -2.115777 -0.000054 -0.003678 0.000003 -0.000002 -0.000002 4.570446 11.014691 -2.160851 -0.000018 0.000010 -0.000021 10.592363 -0.524516 -2.232301 69.637337 3.756800 -2.613269 27.841839 0.000129 -0.000220 107.161386 -63.997773 80.523880 28.328833 -0.000044 0.000021 0.000023 -0.000090 -0.000000 2.466173 -1.576122 2.681870 -8.596509 160.064800 -70.133885 3.217879 -1.871864 1.916413 155.685338 -23.704827 41.476068 2.656086 -1.528693 1.514480 132.468404 -29.951144 52.184763 2.020903 -1.154065 1.115144 0.000001 0.000006 0.000001 9.109364 -0.517874 2.259738 83.283365 -18.471449 16.442168 3.700045 0.000165 -0.000482 82.686625 -13.656087 12.043359 2.850038 0.000193 0.000189 80.825488 -11.015884 9.386335 2.774884 -0.000044 -0.000026 0.000001 -0.000002 -0.000002 9.533469 0.000186 -0.000091 81.533949 -18.767546 16.210025 3.700058 0.000166 -0.000367 84.354633 -13.070892 11.849264 2.950051 0.000164 -0.000217 83.969861 -11.069931 9.970637 2.952866 -0.000034 0.000065 -0.000000 0.000000 -0.000000 9.104572 -0.042865 -1.865218 82.491541 -18.322245 16.099140 3.150063 0.000194 -0.000097 85.586580 -14.025924 12.996066 2.950014 0.000173 -0.000062 85.107477 -10.382603 9.537522 2.644336 0.000018 0.000061 -0.000002 -0.000001 0.000002 8.077827 -0.486736 -3.806403 78.419813 -20.289343 17.112827 3.600018 0.000172 0.014580 76.917356 -18.170311 14.906854 2.100033 0.000154 0.007540 77.404560 -11.991755 10.009504 2.125502 -0.000031 0.007510 -0.000001 -0.000000 0.000000 -8.207786 -6.751667 -1.599560 -0.077001 -0.000003 0.000080 -0.000002 -44.370110 0.345938 0.153719 -0.000000 -0.000000 0.000000 -44.423679 -3.043532 -0.076700 0.000000 -0.000002 -0.000006 -8.728667 10.710559 -0.000009 -0.000000 -0.000000 -0.000001 -0.000679 9.278123 0.000000 -0.000000 -0.000000 8.207792 -6.751710 -1.599556 -0.074518 -0.000003 0.000081 -0.000002 -44.370014 0.346960 0.148822 0.000002 0.000000 -0.000001 -44.423664 -3.044403 -0.074314 0.000000 -0.000002 -0.000004 -8.728671 10.710558 0.000007 -0.000000 -0.000000 0.000000 -0.000680 9.278137 -0.000000 0.000000 -0.000001 
